<?xml version="1.0" encoding="UTF-8"?><svg id="Ebene_1" xmlns="http://www.w3.org/2000/svg" viewBox="0 0 338.823 109.294"><defs><style>.cls-1{fill:#fff;}</style></defs><path class="cls-1" d="M245.87,52.354c-6.873-.269-7.727-5.303-7.952-6.829h21.161c0-8.717-4.358-14.33-13.434-14.422-8.895,0-13.389,5.976-13.389,12.805,0,7.545,5.168,12.937,13.793,12.937,8.201,0,11.593-5.094,12.411-7.463h-6.251c-1.007,1.633-3.199,2.972-6.34,2.972h0Zm-.358-16.761c3.999,0,6.784,1.529,7.638,5.618h-15.05c1.122-4.628,4.492-5.618,7.412-5.618h0Z"/><path class="cls-1" d="M180.088,52.353c-6.873-.269-7.727-5.303-7.951-6.829h21.16c0-8.717-4.357-14.33-13.432-14.422-8.895,0-13.389,5.976-13.389,12.805,0,7.545,5.168,12.937,13.793,12.937,8.201,0,11.592-5.094,12.411-7.463h-6.252c-1.007,1.633-3.2,2.972-6.339,2.972h0Zm-.359-16.76c4,0,6.785,1.529,7.638,5.618h-15.05c1.123-4.628,4.492-5.618,7.412-5.618h0Z"/><polygon class="cls-1" points="201.956 23.41 207.526 23.41 207.526 56.072 201.956 56.072 201.956 23.41 201.956 23.41"/><polygon class="cls-1" points="218.039 23.41 223.61 23.41 223.61 56.072 218.039 56.072 218.039 23.41 218.039 23.41"/><path class="cls-1" d="M267.234,31.948h5.481v3.009c1.753-1.709,4.134-3.818,9.03-3.818,5.034,0,9.437,2.109,9.437,9.478v15.455h-5.573v-13.388c0-4.762-1.436-6.785-5.164-6.785-4.448,0-6.247,1.842-7.638,3.552v16.62h-5.572V31.948h0Z"/><path class="cls-1" d="M298.188,32.757h4.314v-7.864h5.57v7.864h8.403v4.76h-8.403v11.055c0,1.706,.674,3.549,3.909,3.549,1.079,0,3.323-.27,4.763-.673v4.894c-2.741,.358-4.044,.538-6.021,.538-5.302,0-8.222-1.707-8.222-7.006v-12.358h-4.314v-4.76h0Z"/><path class="cls-1" d="M83.61,62.508h-9.013l-5.787-7.349-5.787,7.349h-8.978l10.464-12.514-10.909-13.098h8.973l6.242,7.895,6.37-7.895h8.969l-10.91,13.1,10.365,12.512Z"/><path class="cls-1" d="M127.491,50.024h-9.013l-5.787-7.349-5.786,7.349h-8.978l10.462-12.516-10.907-13.098h8.973l6.242,7.898,6.37-7.898h8.969l-10.911,13.1,10.366,12.514Z"/><path class="cls-1" d="M35.555,52.39c-6.873-.269-7.727-5.303-7.952-6.829h21.161c0-8.717-4.358-14.33-13.433-14.422-8.896,0-13.389,5.975-13.389,12.805,0,7.545,5.167,12.937,13.793,12.937,8.201,0,11.593-5.094,12.411-7.463h-6.252c-1.007,1.633-3.199,2.972-6.339,2.972h0Zm-.359-16.761c3.999,0,6.784,1.53,7.638,5.618h-15.05c1.123-4.628,4.492-5.618,7.413-5.618h0Z"/><path class="cls-1" d="M146.335,52.121c-5.346,0-7.817-3.864-7.817-8.492,0-3.866,3.01-7.729,8.267-7.729,4.068,0,6.428,2.301,7.047,4.203h5.6c-.482-4.058-4.266-9.007-13.006-8.964-8.581,.044-13.568,5.931-13.568,12.265,0,9.703,6.335,13.477,14.063,13.477,8.689,0,12.089-5.838,12.933-9.242h-5.844c-.592,2.112-3.008,4.482-7.674,4.482h0Z"/><polygon class="cls-1" points="88.873 24.378 92.748 24.378 92.748 62.487 88.873 62.487 88.873 24.378 88.873 24.378"/><path class="cls-1" d="M181.68,75.59c-1.831-2.554-4.837-2.871-6.216-2.871-4.724,0-5.718,2.599-5.718,3.865,0,1.854,.949,3.323,5.538,3.91,2.983,.407,3.661,.497,3.661,1.424,0,1.062-1.357,1.514-2.848,1.514-1.764,0-3.458-.497-4.43-2.08l-2.373,1.379c1.04,1.289,2.351,2.961,6.532,2.961,1.966,0,6.057-.407,6.057-3.978,0-3.006-3.029-3.503-6.351-3.933-1.673-.226-2.848-.384-2.848-1.333,0-.678,.678-1.469,2.712-1.469,2.554,0,3.526,1.334,3.956,1.899l2.329-1.288h0Z"/><path class="cls-1" d="M194.763,85.693c3.322,0,6.803-1.65,6.803-6.487,0-3.255-1.966-6.464-6.803-6.464s-6.804,3.21-6.804,6.464c0,4.837,3.481,6.487,6.804,6.487h0Zm0-2.396c-2.509,0-3.956-1.56-3.956-4.136,0-2.848,1.808-4.023,3.956-4.023,2.124,0,3.955,1.175,3.955,4.023,0,2.576-1.446,4.136-3.955,4.136h0Z"/><polygon class="cls-1" points="208.773 85.286 211.575 85.286 211.575 68.854 208.773 68.854 208.773 85.286 208.773 85.286"/><path class="cls-1" d="M231.619,73.149h-2.803v8.363c-.701,.859-1.605,1.785-3.842,1.785-1.876,0-2.6-1.017-2.6-3.413v-6.736h-2.802v7.775c0,3.707,2.215,4.769,4.747,4.769,2.464,0,3.707-1.062,4.543-1.921v1.514h2.758v-12.138h0Z"/><path class="cls-1" d="M238.086,75.952h2.17v6.216c0,2.667,1.469,3.526,4.136,3.526,.995,0,1.65-.09,3.029-.271v-2.464c-.723,.204-1.854,.339-2.396,.339-1.627,0-1.966-.926-1.966-1.785v-5.56h4.226v-2.396h-4.226v-3.956h-2.803v3.956h-2.17v2.396h0Z"/><path class="cls-1" d="M254.401,85.286h2.802v-12.138h-2.802v12.138h0Zm0-14.353h2.802v-2.486h-2.802v2.486h0Z"/><path class="cls-1" d="M271.212,85.693c3.323,0,6.804-1.65,6.804-6.487,0-3.255-1.967-6.464-6.804-6.464s-6.803,3.21-6.803,6.464c0,4.837,3.481,6.487,6.803,6.487h0Zm0-2.396c-2.508,0-3.955-1.56-3.955-4.136,0-2.848,1.808-4.023,3.955-4.023,2.125,0,3.956,1.175,3.956,4.023,0,2.576-1.447,4.136-3.956,4.136h0Z"/><path class="cls-1" d="M284.996,85.286h2.803v-8.363c.701-.859,1.605-1.786,3.842-1.786,1.876,0,2.599,1.017,2.599,3.413v6.736h2.802v-7.775c0-3.707-2.215-4.769-4.747-4.769-2.464,0-3.661,1.062-4.543,1.921v-1.514h-2.758v12.138h0Z"/><path class="cls-1" d="M316.304,75.59c-1.831-2.554-4.837-2.871-6.216-2.871-4.724,0-5.719,2.599-5.719,3.865,0,1.854,.949,3.323,5.538,3.91,2.984,.407,3.662,.497,3.662,1.424,0,1.062-1.356,1.514-2.848,1.514-1.762,0-3.458-.497-4.43-2.08l-2.373,1.379c1.04,1.289,2.351,2.961,6.533,2.961,1.966,0,6.057-.407,6.057-3.978,0-3.006-3.029-3.503-6.351-3.933-1.673-.226-2.848-.384-2.848-1.333,0-.678,.678-1.469,2.712-1.469,2.554,0,3.526,1.334,3.955,1.899l2.328-1.288h0Z"/></svg>